<svg width="463" height="742" viewBox="0 0 463 742" fill="none" xmlns="http://www.w3.org/2000/svg">
<path d="M1 739.216V740.216H2H460.807H461.807V739.216V661.091V660.091H460.807H123.739V655.804L286.821 481.376L286.823 481.374C328.501 436.618 361.079 398.711 384.545 367.66C408.252 336.366 424.882 307.991 434.398 282.54C444.147 256.861 449.023 230.581 449.023 203.705C449.023 166.123 439.624 131.969 420.822 101.265L419.969 101.787L420.822 101.265C402.023 70.5688 376.086 46.1833 343.034 28.1112C309.961 10.0279 272.03 1 229.273 1C186.75 1 148.353 10.0286 114.104 28.1042L114.102 28.1056C80.0921 46.1806 53.2064 71.3992 33.4617 103.752C13.7044 136.126 3.84091 173.716 3.84091 216.489V217.489H4.84091H88.6477H89.6477V216.489C89.6477 188.927 95.1827 164.949 106.216 144.524C117.489 124.095 133.332 108.252 153.761 96.9807L153.764 96.9788C174.426 85.4745 198.637 79.7045 226.432 79.7045C252.578 79.7045 276.101 84.7682 297.02 94.8748C317.933 104.979 334.362 119.301 346.331 137.84L346.336 137.848C358.523 156.365 364.636 178.303 364.636 203.705C364.636 225.819 360.167 246.988 351.227 267.221L351.225 267.226C342.51 287.248 329.068 308.717 310.876 331.634C292.665 354.338 269.481 381.071 241.319 411.836L241.319 411.836L1.26169 674.622L1 674.908V675.296V739.216Z" fill="#D2F263" stroke="black" stroke-width="2"/>
</svg>
