<svg width="493" height="748" viewBox="0 0 493 748" fill="none" xmlns="http://www.w3.org/2000/svg">
<path d="M16.6655 190.761C18.247 153.268 29.6528 120.432 50.8703 92.2204L50.8726 92.2172C72.3101 63.4767 100.348 41.0888 135.008 25.0556C169.903 9.0229 208.229 1 250 1C294.846 1 333.257 10.0864 365.275 28.214L365.28 28.2167C397.333 46.1288 421.937 69.7991 439.122 99.2259C456.315 128.665 464.909 160.452 464.909 194.602C464.909 235.374 454.19 270.076 432.792 298.763L432.789 298.767C411.62 327.464 382.805 347.349 346.301 358.418L345.591 358.633V359.375V365.057V365.906L346.429 366.044C392.154 373.586 427.788 393.013 453.417 424.285L453.419 424.288C479.056 455.334 491.897 493.806 491.897 539.773C491.897 579.115 481.183 614.428 459.757 645.742L459.756 645.744C438.556 676.838 409.576 701.348 372.786 719.272C336.01 737.188 294.141 746.159 247.159 746.159C200.399 746.159 158.755 738.13 122.206 722.095C85.8878 706.059 57.0308 683.789 35.6018 655.296C14.6175 626.848 3.0974 593.892 1.05345 556.398H88.5695C90.6135 579.639 98.7093 599.773 112.868 616.762L112.873 616.767C127.195 633.716 145.92 646.827 169.016 656.113C192.113 665.399 217.692 670.034 245.738 670.034C277.105 670.034 304.948 664.568 329.246 653.611C353.538 642.656 372.624 627.396 386.47 607.821C400.329 588.228 407.25 565.531 407.25 539.773C407.25 512.849 400.577 489.101 387.204 468.564C373.829 447.783 354.255 431.567 328.539 419.899C302.806 408.224 271.406 402.409 234.375 402.409H177.136V326.284H234.375C263.377 326.284 288.861 321.054 310.799 310.562C332.968 300.073 350.279 285.277 362.697 266.172C375.365 247.051 381.681 224.601 381.681 198.864C381.681 174.091 376.201 152.482 365.205 134.075C354.214 115.677 338.683 101.345 318.639 91.0851C298.821 80.8186 275.457 75.7045 248.579 75.7045C223.359 75.7045 199.555 80.3446 177.175 89.6295C155.016 98.684 136.885 111.919 122.804 129.34C108.872 146.342 101.247 166.831 99.9036 190.761H16.6655Z" fill="#D2F263" stroke="black" stroke-width="2"/>
</svg>
