<svg width="36" height="36" viewBox="0 0 36 36" fill="none" xmlns="http://www.w3.org/2000/svg">
<g clip-path="url(#clip0_44_41)">
<path d="M18 36C27.9411 36 36 27.9411 36 18C36 8.05888 27.9411 0 18 0C8.05888 0 0 8.05888 0 18C0 27.9411 8.05888 36 18 36Z" fill="white"/>
<path d="M23.0885 7.67545V10.4231H21.4301C20.5841 10.4231 19.9785 10.6225 19.6023 11.0672C19.2375 11.4985 19.162 12.0792 19.162 12.6517V15.1039V15.4639H19.522H22.9289L22.5256 18.5955H19.4994H19.1394V18.9555V28.44H15.9117V18.9612V18.6012H15.5517H12.6001V15.4696H15.5517H15.9117V15.1096V12.2757C15.9117 10.7078 16.3894 9.53899 17.1754 8.76218C17.9627 7.98426 19.0991 7.56011 20.4917 7.56011H20.4927C21.3593 7.55762 22.2253 7.59704 23.0885 7.67545Z" fill="white" stroke="black" stroke-width="1.5"/>
</g>
<defs>
<clipPath id="clip0_44_41">
<rect width="36" height="36" fill="white"/>
</clipPath>
</defs>
</svg>
