<svg width="301" height="83" viewBox="0 0 301 83" fill="none" xmlns="http://www.w3.org/2000/svg">
<g clip-path="url(#clip0_41_2)">
<path d="M47.375 15.1875H74.8438V19.8125H52.6875V38.5938H71.9062V43.1875H52.6875V63H47.375V15.1875ZM87.9375 16.9062C86.5417 16.9062 85.6458 16.7083 85.25 16.3125C84.625 15.6667 84.3125 14.7812 84.3125 13.6562C84.3125 12.5104 84.375 11.6979 84.5 11.2188C84.6458 10.7188 84.8542 10.3333 85.125 10.0625C85.625 9.5625 86.3854 9.3125 87.4062 9.3125C88.4479 9.3125 89.1875 9.36458 89.625 9.46875C90.0833 9.57292 90.4583 9.77083 90.75 10.0625C91.25 10.5625 91.5 11.3854 91.5 12.5312C91.5 13.6562 91.4375 14.4688 91.3125 14.9688C91.2083 15.4479 91.0208 15.8333 90.75 16.125C90.2292 16.6458 89.2917 16.9062 87.9375 16.9062ZM85.4062 25.8125H90.5312V63H85.4688L85.4062 25.8125ZM123.906 61.2188C120.51 62.8229 117.375 63.625 114.5 63.625C109.292 63.625 106.333 61.3958 105.625 56.9375C105.458 55.875 105.375 54.3333 105.375 52.3125V30.1562H100.875V26.3125L105.375 25.8125L106.188 17.3125H110.531V25.8125H121.375V30.1562H110.531V52.2188C110.531 54.7812 110.719 56.4167 111.094 57.125C111.781 58.4167 113.156 59.0625 115.219 59.0625C117.281 59.0625 119.583 58.4271 122.125 57.1562L123.906 61.2188ZM138.438 19.8125H125.688V15.1875H156.938V19.8125H143.75V63H138.438V19.8125ZM177.625 30.3438C174.958 30.3438 172.24 31.6771 169.469 34.3438V63H164.281V25.8125H168.844L169.344 30.75C170.323 29.2292 171.375 28.0417 172.5 27.1875C173.646 26.3333 174.583 25.8125 175.312 25.625C176.354 25.3333 177.344 25.1875 178.281 25.1875C179.219 25.1875 180.396 25.375 181.812 25.75L181.344 30.7188C180.281 30.4688 179.042 30.3438 177.625 30.3438ZM219.438 49.8125C219.438 53.9583 219.635 58.2708 220.031 62.75L215.406 63.125L214.625 58.7812C211.979 60.9062 208.479 62.3854 204.125 63.2188C202.708 63.4896 201.448 63.625 200.344 63.625C199.24 63.625 198.26 63.5729 197.406 63.4688C196.573 63.3646 195.76 63.1667 194.969 62.875C194.198 62.5625 193.479 62.1354 192.812 61.5938C192.146 61.0521 191.562 60.3333 191.062 59.4375C190 57.5417 189.469 55.2708 189.469 52.625C189.469 49.9583 189.656 47.8958 190.031 46.4375C190.427 44.9583 191.073 43.7292 191.969 42.75C193.74 40.8125 196.719 39.8438 200.906 39.8438C205.094 39.8438 209.562 40.6354 214.312 42.2188V38.1562C214.312 33.6354 212.448 30.9583 208.719 30.125C207.51 29.8542 206.125 29.7188 204.562 29.7188C201 29.7188 197.302 30.4271 193.469 31.8438L192.312 27.3438C193.375 26.6354 196.083 26 200.438 25.4375C201.812 25.2708 203.458 25.1875 205.375 25.1875C207.312 25.1875 209.208 25.4167 211.062 25.875C212.917 26.3333 214.458 27.0833 215.688 28.125C218.188 30.1875 219.438 33.5312 219.438 38.1562V49.8125ZM214.188 46.125C209.312 44.8958 204.812 44.2812 200.688 44.2812C198.146 44.2812 196.458 45.0104 195.625 46.4688C195.062 47.4896 194.781 49 194.781 51C194.781 53 194.885 54.4479 195.094 55.3438C195.323 56.2396 195.688 56.9792 196.188 57.5625C197.167 58.6667 198.781 59.2188 201.031 59.2188C204.552 59.2188 208.042 58.3125 211.5 56.5C212.562 55.9583 213.521 55.3542 214.375 54.6875C214.25 52.4375 214.188 49.5833 214.188 46.125ZM259.438 61.3438C256.542 62.8646 252.573 63.625 247.531 63.625C244.552 63.625 242.365 63.3958 240.969 62.9375C237.406 61.7292 235.073 59.6771 233.969 56.7812C233.198 54.7604 232.75 52.5833 232.625 50.25C232.5 47.9167 232.438 45.9479 232.438 44.3438C232.438 42.7396 232.479 41.1771 232.562 39.6562C232.646 38.1146 232.844 36.6354 233.156 35.2188C233.49 33.8021 233.99 32.4896 234.656 31.2812C235.323 30.0521 236.229 28.9792 237.375 28.0625C239.854 26.1458 243.417 25.1875 248.062 25.1875C251.479 25.1875 254.625 25.6875 257.5 26.6875C258.271 26.9375 258.854 27.1771 259.25 27.4062L257.688 32.0312C253.688 30.4896 250.406 29.7188 247.844 29.7188C245.302 29.7188 243.427 30.0104 242.219 30.5938C241.031 31.1771 240.104 32.0625 239.438 33.25C238.312 35.2917 237.75 39.0417 237.75 44.5C237.75 46.6875 237.823 48.6875 237.969 50.5C238.115 52.2917 238.479 53.8333 239.062 55.125C240.292 57.7917 242.823 59.125 246.656 59.125C250.51 59.125 254.25 58.4583 257.875 57.125L259.438 61.3438ZM270.875 9.9375L276.062 9.375V41.625C276.896 41.7917 277.896 41.3646 279.062 40.3438C280.25 39.3229 281.302 38.3542 282.219 37.4375C283.135 36.5 284.083 35.4792 285.062 34.375C288.583 30.3125 290.896 27.4583 292 25.8125H298.188C297.729 26.8542 296.677 28.3333 295.031 30.25L290.844 34.9688C288.573 37.4062 286.75 39.2083 285.375 40.375C284.021 41.5417 283.125 42.2083 282.688 42.375V42.6875L283.625 43.1562C284.979 43.8021 286.75 45.5208 288.938 48.3125L300.594 63H294.031L286.094 52.5938C282.427 47.8021 279.625 45.3229 277.688 45.1562L277 45.0938C276.792 45.0729 276.604 45.0729 276.438 45.0938C276.271 45.0938 276.146 45.0938 276.062 45.0938V63H270.875V9.9375Z" fill="black"/>
<path d="M12 24C18.6274 24 24 18.6274 24 12C24 5.37258 18.6274 0 12 0C5.37258 0 0 5.37258 0 12C0 18.6274 5.37258 24 12 24Z" fill="#D2F263"/>
<path d="M12 83C18.6274 83 24 77.6274 24 71C24 64.3726 18.6274 59 12 59C5.37258 59 0 64.3726 0 71C0 77.6274 5.37258 83 12 83Z" fill="#D2F263"/>
</g>
<defs>
<clipPath id="clip0_41_2">
<rect width="301" height="83" fill="white"/>
</clipPath>
</defs>
</svg>
