<svg width="36" height="36" viewBox="0 0 36 36" fill="none" xmlns="http://www.w3.org/2000/svg">
<g clip-path="url(#clip0_44_35)">
<path d="M18 36C27.9411 36 36 27.9411 36 18C36 8.05888 27.9411 0 18 0C8.05888 0 0 8.05888 0 18C0 27.9411 8.05888 36 18 36Z" fill="white"/>
<path d="M13.5511 7.20001C10.0649 7.20001 7.19995 10.0611 7.19995 13.5511V22.4489C7.19995 25.9351 10.061 28.8 13.5511 28.8H22.4488C25.935 28.8 28.8 25.9389 28.8 22.4489V13.5511C28.8 10.0649 25.9389 7.20001 22.4488 7.20001H13.5511ZM13.5511 9.16363H22.4488C24.8765 9.16363 26.8363 11.1234 26.8363 13.5511V22.4489C26.8363 24.8766 24.8765 26.8364 22.4488 26.8364H13.5511C11.1234 26.8364 9.16357 24.8766 9.16357 22.4489V13.5511C9.16357 11.1234 11.1234 9.16363 13.5511 9.16363ZM23.7988 11.3114C23.3041 11.3114 22.9091 11.7064 22.9091 12.2011C22.9091 12.6959 23.3041 13.0909 23.7988 13.0909C24.2935 13.0909 24.6886 12.6959 24.6886 12.2011C24.6886 11.7064 24.2935 11.3114 23.7988 11.3114ZM18 12.1091C14.7592 12.1091 12.1091 14.7593 12.1091 18C12.1091 21.2408 14.7592 23.8909 18 23.8909C21.2407 23.8909 23.8908 21.2408 23.8908 18C23.8908 14.7593 21.2407 12.1091 18 12.1091ZM18 14.0727C20.1822 14.0727 21.9272 15.8178 21.9272 18C21.9272 20.1823 20.1822 21.9273 18 21.9273C15.8177 21.9273 14.0727 20.1823 14.0727 18C14.0727 15.8178 15.8177 14.0727 18 14.0727Z" fill="black"/>
</g>
<defs>
<clipPath id="clip0_44_35">
<rect width="36" height="36" fill="white"/>
</clipPath>
</defs>
</svg>
