<svg width="36" height="36" viewBox="0 0 36 36" fill="none" xmlns="http://www.w3.org/2000/svg">
<g clip-path="url(#clip0_44_44)">
<path d="M18 36C27.9411 36 36 27.9411 36 18C36 8.05888 27.9411 0 18 0C8.05888 0 0 8.05888 0 18C0 27.9411 8.05888 36 18 36Z" fill="white"/>
<path d="M20.2263 26.815V26.82H16.3353V15.3856H20.2263V17.0034V17.6825L20.5627 17.0925C21.075 16.194 22.1086 15.3856 24.1081 15.3856C25.0842 15.3856 25.9557 15.7737 26.5883 16.6007C27.225 17.4331 27.6315 18.7265 27.6315 20.5535V26.82H23.877V20.5535C23.877 19.6229 23.5894 19.0258 23.2244 18.6608C22.8649 18.3013 22.4421 18.1797 22.189 18.1797C21.9543 18.1797 21.4663 18.2557 21.0326 18.5952C20.5895 18.9419 20.2263 19.5454 20.2263 20.5535V20.5552V20.557V20.5589V20.561V20.5632V20.5656V20.568V20.5706V20.5734V20.5762V20.5792V20.5823V20.5856V20.589V20.5925V20.5961V20.5999V20.6038V20.6078V20.6119V20.6162V20.6206V20.6251V20.6298V20.6345V20.6394V20.6444V20.6495V20.6547V20.6601V20.6655V20.6712V20.6768V20.6827V20.6886V20.6947V20.7009V20.7072V20.7136V20.7201V20.7267V20.7335V20.7403V20.7473V20.7544V20.7616V20.7689V20.7763V20.7838V20.7914V20.7992V20.807V20.815V20.823V20.8312V20.8395V20.8478V20.8563V20.8649V20.8736V20.8824V20.8913V20.9003V20.9093V20.9185V20.9278V20.9372V20.9467V20.9563V20.966V20.9758V20.9857V20.9956V21.0057V21.0159V21.0261V21.0365V21.0469V21.0575V21.0681V21.0788V21.0897V21.1006V21.1116V21.1227V21.1338V21.1451V21.1564V21.1679V21.1794V21.191V21.2027V21.2145V21.2264V21.2383V21.2504V21.2625V21.2747V21.287V21.2994V21.3118V21.3243V21.337V21.3496V21.3624V21.3753V21.3882V21.4012V21.4143V21.4274V21.4407V21.454V21.4673V21.4808V21.4943V21.5079V21.5216V21.5353V21.5492V21.5631V21.577V21.591V21.6051V21.6193V21.6335V21.6478V21.6622V21.6766V21.6911V21.7057V21.7203V21.735V21.7498V21.7646V21.7795V21.7944V21.8094V21.8245V21.8396V21.8548V21.8701V21.8854V21.9007V21.9161V21.9316V21.9472V21.9628V21.9784V21.9941V22.0099V22.0257V22.0416V22.0575V22.0734V22.0895V22.1055V22.1217V22.1378V22.1541V22.1703V22.1867V22.203V22.2194V22.2359V22.2525V22.269V22.2856V22.3022V22.3189V22.3357V22.3525V22.3693V22.3862V22.403V22.42V22.437V22.454V22.4711V22.4882V22.5054V22.5225V22.5397V22.557V22.5743V22.5916V22.609V22.6264V22.6438V22.6613V22.6788V22.6963V22.7139V22.7315V22.7491V22.7668V22.7845V22.8022V22.8199V22.8377V22.8555V22.8733V22.8912V22.9091V22.927V22.9449V22.9628V22.9808V22.9988V23.0168V23.0349V23.053V23.0711V23.0892V23.1073V23.1255V23.1436V23.1618V23.18V23.1982V23.2165V23.2347V23.253V23.2713V23.2896V23.3079V23.3262V23.3446V23.3629V23.3813V23.3997V23.4181V23.4365V23.4549V23.4733V23.4917V23.5102V23.5286V23.5471V23.5655V23.584V23.6024V23.6209V23.6394V23.6579V23.6763V23.6948V23.7133V23.7318V23.7503V23.7688V23.7873V23.8058V23.8243V23.8428V23.8613V23.8797V23.8982V23.9167V23.9352V23.9536V23.9721V23.9906V24.009V24.0275V24.0459V24.0643V24.0827V24.1012V24.1196V24.138V24.1563V24.1747V24.1931V24.2114V24.2298V24.248V24.2664V24.2847V24.3029V24.3212V24.3394V24.3577V24.3759V24.3941V24.4122V24.4304V24.4485V24.4667V24.4847V24.5028V24.5209V24.5389V24.5569V24.5749V24.5929V24.6108V24.6287V24.6466V24.6645V24.6823V24.7001V24.7179V24.7357V24.7534V24.7711V24.7888V24.8064V24.824V24.8416V24.8591V24.8766V24.8941V24.9116V24.929V24.9463V24.9637V24.981V24.9982V25.0155V25.0327V25.0498V25.067V25.0841V25.1011V25.1181V25.135V25.152V25.1689V25.1857V25.2025V25.2193V25.236V25.2526V25.2693V25.2858V25.3023V25.3188V25.3353V25.3517V25.368V25.3843V25.4005V25.4167V25.4329V25.449V25.465V25.481V25.4969V25.5128V25.5286V25.5444V25.5601V25.5758V25.5914V25.607V25.6225V25.6379V25.6533V25.6686V25.6839V25.6991V25.7143V25.7294V25.7444V25.7594V25.7743V25.7891V25.8039V25.8186V25.8333V25.8478V25.8624V25.8768V25.8912V25.9055V25.9198V25.934V25.9481V25.9621V25.9761V25.99V26.0039V26.0177V26.0313V26.045V26.0585V26.072V26.0854V26.0987V26.112V26.1252V26.1383V26.1513V26.1643V26.1771V26.1899V26.2027V26.2153V26.2279V26.2403V26.2527V26.2651V26.2773V26.2894V26.3015V26.3135V26.3254V26.3372V26.3489V26.3606V26.3721V26.3836V26.395V26.4063V26.4175V26.4286V26.4397V26.4506V26.4614V26.4722V26.4829V26.4934V26.5039V26.5143V26.5246V26.5348V26.5449V26.5549V26.5648V26.5747V26.5844V26.594V26.6035V26.613V26.6223V26.6315V26.6406V26.6496V26.6586V26.6674V26.6761V26.6847V26.6933V26.7017V26.71V26.7182V26.7263V26.7343V26.7421V26.7499V26.7576V26.7651V26.7726V26.7799V26.7872V26.7943V26.8013V26.8082V26.815ZM12.4673 26.82H8.57621V15.3856H12.4673V26.82ZM10.4468 12.8638C9.83793 12.8638 9.34236 12.6614 9.00029 12.3359C8.65854 12.0107 8.45996 11.5532 8.45996 11.0219C8.45996 10.4909 8.65774 10.0351 9.01458 9.71067C9.37242 9.38526 9.90392 9.17999 10.59 9.17999C11.1988 9.17999 11.6944 9.38235 12.0365 9.7079C12.3782 10.0331 12.5768 10.4906 12.5768 11.0219C12.5768 11.5529 12.379 12.0087 12.0222 12.3331C11.6643 12.6585 11.1328 12.8638 10.4468 12.8638Z" fill="white" stroke="black" stroke-width="1.5"/>
</g>
<defs>
<clipPath id="clip0_44_44">
<rect width="36" height="36" fill="white"/>
</clipPath>
</defs>
</svg>
